<svg xmlns="http://www.w3.org/2000/svg" enable-background="new 0 0 24 24" height="24px" viewBox="0 0 24 24" width="24px" fill="#000000"><g><rect fill="none" height="24" width="24"/></g>    <style type="text/css"><![CDATA[ line { stroke: #ffffff; stroke-width: 3; } ]]></style>
	<line x1="0" y1="15" x2="15" y2="30" />
	<line x1="30" y1="15" x2="15" y2="30" />
	<line x1="15" y1="30" x2="15" y2="0" /><g><path d="M18.97,3H5C3.9,3,3,3.9,3,5v14c0,1.1,0.9,2,2,2h13.97c1.1,0,2-0.9,2-2V5C20.97,3.9,20.08,3,18.97,3z M17.38,16.98 C17.35,16.99,17.31,17,17.28,17h-2.26c-0.2,0-0.38-0.11-0.46-0.3l-2.46-5.74c-0.02-0.06-0.08-0.09-0.13-0.07 c-0.03,0.01-0.06,0.04-0.07,0.07l-1.53,3.65c-0.03,0.07,0,0.14,0.07,0.17c0.02,0.01,0.03,0.01,0.05,0.01h1.68 c0.1,0,0.2,0.06,0.24,0.16l0.74,1.64c0.07,0.15-0.01,0.33-0.16,0.4C12.93,16.99,12.89,17,12.85,17H6.73 c-0.15,0-0.28-0.13-0.28-0.28c0-0.04,0.01-0.07,0.02-0.11l3.9-9.28C10.45,7.13,10.65,7,10.86,7h2.25c0.22,0,0.41,0.13,0.49,0.33 l3.92,9.28C17.59,16.75,17.53,16.92,17.38,16.98z"/></g>

</svg>